<svg width="265" height="66" viewBox="0 0 265 66" fill="none" xmlns="http://www.w3.org/2000/svg">
<path d="M22.2654 18.136C22.2654 22.558 19.2294 25.462 11.7714 25.462C3.55441 25.462 0.0894063 21.964 0.0894063 15.925H6.29341C6.29341 19.225 7.58041 20.446 11.9034 20.446C14.8404 20.446 16.0944 19.852 16.0944 18.4C16.0944 17.575 15.4344 16.948 14.1144 16.618L6.32641 14.572C2.30041 13.483 1.04641 11.14 1.04641 8.203C1.04641 3.682 4.41241 1.273 10.5174 1.273C17.7774 1.273 21.3744 4.705 21.3744 9.754H15.2034C15.2034 7.246 13.7844 6.19 10.6164 6.19C8.40541 6.19 7.25041 6.751 7.25041 8.071C7.25041 8.731 7.61341 9.292 9.06541 9.688L16.6224 11.569C20.4834 12.526 22.2654 14.737 22.2654 18.136ZM23.9654 16.585C23.9654 11.206 27.6614 7.972 32.8424 7.972C38.6174 7.972 41.9504 11.107 41.9504 16.354V17.839H29.6414C29.8394 19.918 31.0604 21.073 33.1064 21.073C34.8554 21.073 36.0434 20.38 36.3734 19.093H41.9834C41.5214 22.789 38.2544 25.33 33.1064 25.33C27.4634 25.33 23.9654 21.799 23.9654 16.585ZM29.6414 14.935H36.4394C36.2744 13.087 34.9874 12.064 33.0074 12.064C31.0604 12.064 29.7734 13.087 29.6414 14.935ZM43.7879 20.446C43.7879 17.542 45.4709 15.826 50.5859 15.298L55.6679 14.737C55.6679 12.988 54.8099 12.295 52.5659 12.295C50.5199 12.295 49.5629 13.153 49.4969 14.638H44.1839C44.2829 10.249 48.2099 7.972 52.7969 7.972C57.4169 7.972 61.3439 10.051 61.3439 15.43V20.017H63.7529V25H59.9249C58.3079 25 57.3509 24.076 57.3509 22.459V20.776C56.5919 23.251 54.8099 25.33 49.9589 25.33C44.6789 25.33 43.7879 22.162 43.7879 20.446ZM49.3319 19.489C49.3319 20.578 50.3219 20.842 51.4109 20.842C53.7539 20.842 55.6679 19.588 55.6679 17.575L51.6419 18.169C50.1569 18.4 49.3319 18.565 49.3319 19.489ZM65.9783 11.173C65.9783 9.292 67.0343 8.302 68.9153 8.302H80.1023V13.285H71.6543V25H65.9783V11.173ZM80.7486 16.618C80.7486 10.942 84.6426 7.972 89.9556 7.972C94.7406 7.972 98.8986 10.612 99.0966 15.298H93.4206C93.2556 14.044 92.0346 12.955 89.9556 12.955C87.9756 12.955 86.3916 14.209 86.3916 16.618C86.3916 19.06 87.9756 20.347 89.9556 20.347C92.0346 20.347 93.2556 19.258 93.4206 18.004H99.0966C98.8986 22.69 94.7406 25.33 89.9556 25.33C84.6426 25.33 80.7486 22.327 80.7486 16.618ZM101.618 25V0.745H107.261V12.229C108.119 9.787 110.297 7.972 113.894 7.972C118.25 7.972 120.857 10.909 120.857 16.156V25H115.148V17.047C115.148 14.044 114.356 12.955 111.848 12.955C109.076 12.955 107.261 14.275 107.261 18.994V25H101.618ZM127.049 25.33C124.673 25.33 123.254 23.647 123.254 21.634C123.254 19.687 124.673 18.037 127.049 18.037C129.359 18.037 130.91 19.687 130.91 21.634C130.91 23.647 129.359 25.33 127.049 25.33ZM165.287 18.136C165.287 22.558 162.251 25.462 154.793 25.462C146.576 25.462 143.111 21.964 143.111 15.925H149.315C149.315 19.225 150.602 20.446 154.925 20.446C157.862 20.446 159.116 19.852 159.116 18.4C159.116 17.575 158.456 16.948 157.136 16.618L149.348 14.572C145.322 13.483 144.068 11.14 144.068 8.203C144.068 3.682 147.434 1.273 153.539 1.273C160.799 1.273 164.396 4.705 164.396 9.754H158.225C158.225 7.246 156.806 6.19 153.638 6.19C151.427 6.19 150.272 6.751 150.272 8.071C150.272 8.731 150.635 9.292 152.087 9.688L159.644 11.569C163.505 12.526 165.287 14.737 165.287 18.136ZM166.598 8.302H172.01L174.287 19.72L174.914 22.888L176.96 8.302H187.256L189.368 22.789L189.929 19.753L192.206 8.302H197.618L194.285 25H184.22L182.108 10.15L180.029 25H169.799L166.598 8.302ZM199.094 25V20.017H203.78V13.285H199.688V8.302H206.123C207.938 8.302 208.994 9.226 208.994 11.074V20.017H213.713V25H199.094ZM202.691 4.012C202.691 2.098 203.978 1.174 205.991 1.174C208.004 1.174 209.39 2.098 209.39 4.012C209.39 5.959 208.004 6.85 205.991 6.85C203.978 6.85 202.691 5.959 202.691 4.012ZM215.99 31.93V8.302H221.633V11.503C222.656 9.589 224.504 7.972 227.969 7.972C233.381 7.972 235.658 11.965 235.658 16.684C235.658 21.37 233.381 25.33 227.969 25.33C224.306 25.33 222.557 23.548 221.633 21.799V31.93H215.99ZM221.666 16.684C221.666 19.225 223.052 20.347 225.791 20.347C228.563 20.347 230.015 19.258 230.015 16.684C230.015 14.11 228.563 12.955 225.791 12.955C223.052 12.955 221.666 14.077 221.666 16.684ZM237.402 16.585C237.402 11.206 241.098 7.972 246.279 7.972C252.054 7.972 255.387 11.107 255.387 16.354V17.839H243.078C243.276 19.918 244.497 21.073 246.543 21.073C248.292 21.073 249.48 20.38 249.81 19.093H255.42C254.958 22.789 251.691 25.33 246.543 25.33C240.9 25.33 237.402 21.799 237.402 16.585ZM243.078 14.935H249.876C249.711 13.087 248.424 12.064 246.444 12.064C244.497 12.064 243.21 13.087 243.078 14.935ZM260.886 25.33C258.51 25.33 257.091 23.647 257.091 21.634C257.091 19.687 258.51 18.037 260.886 18.037C263.196 18.037 264.747 19.687 264.747 21.634C264.747 23.647 263.196 25.33 260.886 25.33ZM80.402 59V35.735H98.915V40.982H86.441V44.876H97.265V49.826H86.441V53.753H98.915V59H80.402ZM101.376 59V42.302H107.019V46.229C107.877 43.787 110.055 41.972 113.652 41.972C118.008 41.972 120.615 44.909 120.615 50.156V59H114.906V51.047C114.906 48.044 114.114 46.955 111.606 46.955C108.834 46.955 107.019 48.275 107.019 52.994V59H101.376ZM125.686 60.122C126.28 58.901 126.379 58.34 126.379 56.888V47.285H122.32V42.302H129.085C130.966 42.302 132.055 43.259 132.055 45.206V57.581C132.055 59 131.956 59.528 131.395 60.749L128.92 65.93H122.749L125.686 60.122ZM125.653 38.012C125.653 36.098 126.94 35.174 128.953 35.174C130.966 35.174 132.352 36.098 132.352 38.012C132.352 39.959 130.966 40.85 128.953 40.85C126.94 40.85 125.653 39.959 125.653 38.012ZM134.648 50.618C134.648 44.711 138.905 41.972 144.152 41.972C149.333 41.972 153.623 44.711 153.623 50.618C153.623 56.591 149.333 59.33 144.152 59.33C138.905 59.33 134.648 56.591 134.648 50.618ZM140.291 50.618C140.291 53.126 141.842 54.347 144.152 54.347C146.396 54.347 147.947 53.126 147.947 50.618C147.947 48.143 146.396 46.955 144.152 46.955C141.842 46.955 140.291 48.143 140.291 50.618ZM175.212 42.302V59H175.179V63.125C175.179 65.072 174.123 65.996 172.275 65.996H158.019V61.013H169.536V59H169.569V55.073C168.711 57.515 166.533 59.33 162.936 59.33C158.58 59.33 155.973 56.393 155.973 51.146V42.302H161.682V50.255C161.682 53.258 162.474 54.347 164.982 54.347C167.754 54.347 169.569 53.027 169.569 48.308V42.302H175.212ZM181.431 59.33C179.055 59.33 177.636 57.647 177.636 55.634C177.636 53.687 179.055 52.037 181.431 52.037C183.741 52.037 185.292 53.687 185.292 55.634C185.292 57.647 183.741 59.33 181.431 59.33Z" fill="#7CE2F8"/>
</svg>
