
<svg width="535" height="132" viewBox="0 0 535 132" fill="#e4e4e7" xmlns="http://www.w3.org/2000/svg">
<path d="M24.3076 117.084C36.1372 126.727 50.9495 131.997 66.2332 132C102.794 132 132.466 102.432 132.466 66C132.466 29.568 102.794 1.59957e-06 66.2332 0C29.6725 -1.59957e-06 1.54273e-05 29.568 1.38363e-05 66C-0.00565474 74.7306 1.7305 83.3751 5.10753 91.4311C8.48457 99.487 13.4351 106.794 19.6713 112.926C19.87 113.124 20.0687 113.256 20.2011 113.388C21.5258 114.708 22.9167 115.962 24.3076 117.084ZM13.2467 66C13.2467 36.894 37.0244 13.2 66.2332 13.2C95.442 13.2 119.22 36.894 119.22 66C119.22 95.106 95.442 118.8 66.2332 118.8C53.9801 118.8 42.7867 114.642 33.7789 107.646L43.2503 98.208C49.7411 102.762 57.6229 105.468 66.167 105.468C88.0902 105.468 105.907 87.714 105.907 65.868C105.907 44.022 88.0902 26.268 66.167 26.268C44.2438 26.268 26.4271 44.022 26.4271 65.868C26.4271 74.448 29.2089 82.434 33.9114 88.902L24.5063 98.274C17.1847 89.1019 13.2137 77.7199 13.2467 66ZM62.8553 78.672C67.2267 79.794 71.9955 78.804 75.4396 75.438L75.5721 75.306C80.672 70.224 80.7383 62.106 75.837 56.958C75.7708 56.892 75.7045 56.76 75.5721 56.628C70.4059 51.48 61.9943 51.48 56.8281 56.628L56.6956 56.76C53.3177 60.192 52.258 65.01 53.4502 69.366L43.449 79.332C41.0646 75.372 39.6075 70.818 39.6075 65.868C39.6075 51.282 51.4632 39.468 66.1007 39.468C80.7383 39.468 92.594 51.282 92.594 65.868C92.594 80.454 80.7383 92.268 66.1007 92.268C61.2657 92.268 56.7619 90.882 52.8541 88.572L62.8553 78.672Z" fill="#e4e4e7"/>
<path d="M169.776 107.36V27.9487H200.161C221.881 27.9487 244.389 33.4681 244.389 67.598C244.389 101.841 221.881 107.36 200.161 107.36H169.776ZM190.258 89.3375H200.161C213.778 89.3375 223.907 88.887 223.907 67.598C223.907 46.3091 213.666 45.8585 200.161 45.8585H190.258V89.3375Z" fill="#e4e4e7"/>
<path d="M275.677 108.486C260.934 108.486 252.044 98.4614 252.044 80.5516V50.3641H271.4V77.5103C271.4 87.7606 274.214 91.4777 282.767 91.4777C292.22 91.4777 298.409 86.9721 298.409 70.8646V50.3641H317.653V107.36H298.409V93.9558C295.483 102.291 288.056 108.486 275.677 108.486Z" fill="#e4e4e7"/>
<path d="M352.864 108.486C334.407 108.486 326.642 94.8569 326.642 78.7494C326.642 62.7545 334.407 49.2377 352.864 49.2377C365.243 49.2377 371.32 55.2076 374.471 61.0649V50.3641H393.715V121.44C393.715 128.086 390.114 131.24 383.812 131.24H335.195V114.231H374.471V96.5465C370.982 102.967 364.68 108.486 352.864 108.486ZM345.886 78.7494C345.886 87.5353 350.838 91.4777 360.291 91.4777C369.632 91.4777 374.358 87.6479 374.358 78.7494C374.358 70.0761 369.632 66.2463 360.291 66.2463C350.838 66.2463 345.886 69.9635 345.886 78.7494Z" fill="#e4e4e7"/>
<path d="M402.144 91.8156C402.144 81.9033 407.883 76.046 425.327 74.2438L442.657 72.3289C442.657 66.359 439.731 63.9935 432.079 63.9935C425.101 63.9935 421.838 66.9222 421.613 71.991H403.494C403.832 57.0099 417.224 49.2377 432.867 49.2377C448.622 49.2377 462.014 56.334 462.014 74.6944V90.3513H470.229V107.36H457.175C451.66 107.36 448.397 104.206 448.397 98.6867V92.942C445.808 101.39 439.731 108.486 423.188 108.486C405.182 108.486 402.144 97.6729 402.144 91.8156ZM421.05 88.5491C421.05 92.2662 424.426 93.1673 428.14 93.1673C436.13 93.1673 442.657 88.887 442.657 82.0159L428.928 84.0435C423.864 84.8319 421.05 85.3951 421.05 88.5491Z" fill="#e4e4e7"/>
<path d="M479.434 29.3039C479.434 8.62394 492.535 0.0879456 509.151 0.0879456C524.537 0.0879456 535 7.39195 535 21.5599C535 40.8319 513.547 45.056 486.468 49.2799H535V63.3599H480.314V36.5199C501.063 35.0239 519.086 31.1519 519.086 21.2079C519.086 17.9519 517.152 14.0799 508.888 14.0799C499.129 14.0799 495.436 19.0959 495.436 29.3039H479.434Z" fill="#e4e4e7"/>
</svg>
