<svg width="24" height="24" viewBox="0 0 24 24" fill="none" xmlns="http://www.w3.org/2000/svg">
<g clip-path="url(#clip0_808_168)">
<path d="M11.999 7.99956C10.8922 7.99956 9.83071 8.42113 9.04809 9.17152C8.26548 9.92192 7.82581 10.9397 7.82581 12.0009C7.82581 13.0621 8.26548 14.0799 9.04809 14.8303C9.83071 15.5807 10.8922 16.0022 11.999 16.0022C13.1057 16.0022 14.1672 15.5807 14.9498 14.8303C15.7324 14.0799 16.1721 13.0621 16.1721 12.0009C16.1721 10.9397 15.7324 9.92192 14.9498 9.17152C14.1672 8.42113 13.1057 7.99956 11.999 7.99956ZM9.91238 12.0009C9.91238 11.4703 10.1322 10.9614 10.5235 10.5862C10.9148 10.211 11.4456 10.0002 11.999 10.0002C12.5524 10.0002 13.0831 10.211 13.4744 10.5862C13.8657 10.9614 14.0855 11.4703 14.0855 12.0009C14.0855 12.5315 13.8657 13.0404 13.4744 13.4156C13.0831 13.7908 12.5524 14.0016 11.999 14.0016C11.4456 14.0016 10.9148 13.7908 10.5235 13.4156C10.1322 13.0404 9.91238 12.5315 9.91238 12.0009ZM17.4616 4.79449C17.0769 4.86118 16.6803 4.77936 16.3582 4.56687C16.0362 4.35439 15.8148 4.02845 15.7423 3.66011L15.1998 0.827164C15.1742 0.68877 15.1058 0.56095 15.0035 0.460329C14.9012 0.359708 14.7696 0.290942 14.626 0.262976C12.893 -0.0876586 11.1028 -0.0876586 9.36987 0.262976C9.22622 0.290942 9.09468 0.359708 8.99234 0.460329C8.89 0.56095 8.82161 0.68877 8.79606 0.827164L8.25564 3.66011C8.21618 3.86188 8.13157 4.05305 8.00765 4.22046C7.88373 4.38786 7.72344 4.52753 7.53782 4.62983C7.35219 4.73213 7.14565 4.79464 6.93241 4.81305C6.71917 4.83146 6.5043 4.80533 6.30261 4.73647L3.46695 3.76815C3.32919 3.72221 3.18046 3.71572 3.03892 3.74947C2.89738 3.78322 2.76915 3.85575 2.66988 3.95821C1.48193 5.2129 0.584495 6.69454 0.0366219 8.30566C-0.00911018 8.43886 -0.0120793 8.58215 0.0280992 8.71699C0.0682776 8.85182 0.149753 8.97199 0.261972 9.06191L2.56138 10.9245C2.62398 10.9739 2.68031 11.0279 2.73039 11.0866C2.85611 11.2277 2.95149 11.3913 3.01106 11.5679C3.07064 11.7445 3.09322 11.9306 3.07751 12.1156C3.0618 12.3006 3.00812 12.4808 2.91954 12.6458C2.83097 12.8109 2.70925 12.9575 2.56138 13.0773L0.261972 14.9399C0.149753 15.0298 0.0682776 15.15 0.0280992 15.2848C-0.0120793 15.4196 -0.00911018 15.5629 0.0366219 15.6961C0.585113 17.3074 1.48326 18.7891 2.67197 20.0436C2.77124 20.146 2.89947 20.2186 3.04101 20.2523C3.18255 20.2861 3.33128 20.2796 3.46904 20.2336L6.30678 19.2653C6.50845 19.1957 6.72349 19.1691 6.93698 19.1872C7.15047 19.2053 7.3573 19.2677 7.54312 19.3701C7.72893 19.4725 7.88929 19.6124 8.01305 19.7802C8.13681 19.948 8.22101 20.1396 8.25982 20.3417L8.79815 23.1746C8.8524 23.4547 9.07984 23.6788 9.37196 23.7368C11.1056 24.0877 12.8965 24.0877 14.6301 23.7368C14.7731 23.7086 14.904 23.64 15.0059 23.5398C15.1078 23.4396 15.1761 23.3124 15.2018 23.1746L15.7444 20.3417C15.7838 20.1399 15.8684 19.9487 15.9923 19.7813C16.1163 19.6139 16.2766 19.4743 16.4622 19.372C16.6478 19.2697 16.8544 19.2072 17.0676 19.1887C17.2808 19.1703 17.4957 19.1965 17.6974 19.2653L20.533 20.2336C20.8147 20.3297 21.1298 20.2537 21.3301 20.0436C22.5181 18.7889 23.4155 17.3072 23.9634 15.6961C24.0091 15.5629 24.0121 15.4196 23.9719 15.2848C23.9317 15.15 23.8502 15.0298 23.738 14.9399L21.4386 13.0773C21.2749 12.9452 21.1433 12.7805 21.053 12.5945C20.9627 12.4086 20.916 12.206 20.916 12.0009C20.916 11.7958 20.9627 11.5932 21.053 11.4072C21.1433 11.2213 21.2749 11.0566 21.4386 10.9245L23.738 9.06191C23.8502 8.97199 23.9317 8.85182 23.9719 8.71699C24.0121 8.58215 24.0091 8.43886 23.9634 8.30566C23.4143 6.6942 22.5154 5.21253 21.3259 3.95821C21.2267 3.85575 21.0984 3.78322 20.9569 3.74947C20.8154 3.71572 20.6666 3.72221 20.5289 3.76815L17.6911 4.73647C17.6152 4.76072 17.5379 4.78076 17.4595 4.79649M3.6464 5.95688L5.60152 6.6231C6.088 6.78916 6.60628 6.85199 7.12056 6.80726C7.63484 6.76252 8.13286 6.61129 8.58023 6.364C9.02761 6.11671 9.41367 5.77925 9.71175 5.37495C10.0098 4.97064 10.2128 4.50911 10.3067 4.02223L10.6761 2.08158C11.5524 1.97444 12.4393 1.97444 13.3156 2.08158L13.687 4.02223C13.7802 4.50944 13.9828 4.97139 14.2808 5.37607C14.5787 5.78075 14.9648 6.11848 15.4124 6.36588C15.8599 6.61328 16.3583 6.76442 16.8728 6.80883C17.3873 6.85325 17.9058 6.78987 18.3922 6.6231L20.3453 5.95288C20.8794 6.62377 21.3176 7.34667 21.6598 8.1216L20.0865 9.39602C19.6912 9.71604 19.3735 10.1149 19.1556 10.5648C18.9376 11.0147 18.8247 11.5048 18.8247 12.0009C18.8247 12.497 18.9376 12.987 19.1556 13.437C19.3735 13.8869 19.6912 14.2857 20.0865 14.6058L21.6619 15.8802C21.3203 16.6531 20.8787 17.3818 20.3473 18.0489L18.3922 17.3807C17.9057 17.2146 17.3875 17.1518 16.8732 17.1965C16.3589 17.2413 15.8609 17.3925 15.4135 17.6398C14.9661 17.8871 14.5801 18.2245 14.282 18.6288C13.9839 19.0332 13.7809 19.4947 13.687 19.9816L13.3156 21.9222C12.4393 22.0294 11.5524 22.0294 10.6761 21.9222L10.3067 19.9816C10.2135 19.4944 10.0109 19.0324 9.71297 18.6277C9.41505 18.223 9.02893 17.8853 8.58137 17.6379C8.1338 17.3905 7.63549 17.2394 7.12096 17.195C6.60642 17.1505 6.08797 17.2139 5.60152 17.3807L3.65266 18.0489C3.12131 17.3818 2.67966 16.6531 2.33811 15.8802L3.91139 14.6038C4.30634 14.2837 4.62374 13.885 4.84145 13.4353C5.05917 12.9855 5.17196 12.4957 5.17196 11.9999C5.17196 11.5041 5.05917 11.0143 4.84145 10.5645C4.62374 10.1148 4.30634 9.71605 3.91139 9.39602L2.33603 8.1216C2.68101 7.34667 3.11919 6.62377 3.65057 5.95288" fill="white"/>
</g>
<defs>
<clipPath id="clip0_808_168">
<rect width="24" height="24" fill="white"/>
</clipPath>
</defs>
</svg>
