<svg width="123" height="123" viewBox="0 0 123 123" fill="#e4e4e7" xmlns="http://www.w3.org/2000/svg">
<path  fill-rule="evenodd" clip-rule="evenodd" d="M61.5 12.5C52.9297 12.4984 44.5088 14.7447 37.0779 19.0147C29.647 23.2847 23.466 29.429 19.1519 36.8343C14.8377 44.2397 12.5413 52.647 12.4918 61.2172C12.4424 69.7874 14.6416 78.2207 18.87 85.6754C21.728 81.961 25.4019 78.9537 29.6077 76.8859C33.8134 74.818 38.4384 73.7451 43.125 73.75H79.875C84.5616 73.7451 89.1866 74.818 93.3924 76.8859C97.5981 78.9537 101.272 81.961 104.13 85.6754C108.358 78.2207 110.558 69.7874 110.508 61.2172C110.459 52.647 108.162 44.2397 103.848 36.8343C99.534 29.429 93.353 23.2847 85.9221 19.0147C78.4912 14.7447 70.0704 12.4984 61.5 12.5ZM110.151 98.7155C110.919 97.7151 111.654 96.6902 112.356 95.6407C119.146 85.551 122.766 73.6619 122.75 61.5C122.75 27.6716 95.3284 0.25 61.5 0.25C27.6716 0.25 0.250002 27.6716 0.250002 61.5C0.2307 74.9551 4.66025 88.0392 12.8491 98.7155L12.8185 98.8257L14.9929 101.355C20.7374 108.072 27.87 113.462 35.8989 117.156C43.9279 120.849 52.6622 122.758 61.5 122.75C62.823 122.75 64.1378 122.709 65.4445 122.627C76.4964 121.931 87.1496 118.236 96.2594 111.939C100.616 108.934 104.565 105.376 108.007 101.355L110.181 98.8257L110.151 98.7155ZM61.5 24.75C56.6267 24.75 51.9529 26.6859 48.5069 30.1319C45.0609 33.5779 43.125 38.2516 43.125 43.125C43.125 47.9984 45.0609 52.6721 48.5069 56.1181C51.9529 59.5641 56.6267 61.5 61.5 61.5C66.3734 61.5 71.0471 59.5641 74.4931 56.1181C77.9391 52.6721 79.875 47.9984 79.875 43.125C79.875 38.2516 77.9391 33.5779 74.4931 30.1319C71.0471 26.6859 66.3734 24.75 61.5 24.75Z" fill="#e4e4e7"/>
</svg>
