<svg width="110" height="49" viewBox="0 0 110 49" fill="none" xmlns="http://www.w3.org/2000/svg">
<path d="M30.3906 4.91016C31.2565 4.91016 31.9189 5.10221 32.3779 5.48633C32.8369 5.86719 33.0664 6.4222 33.0664 7.15137C33.0664 7.85775 32.8337 8.40788 32.3682 8.80176C31.9027 9.19238 31.2533 9.3877 30.4199 9.3877H29.4678V12H27.959V4.91016H30.3906ZM30.3271 8.26953C30.7406 8.26953 31.0482 8.17839 31.25 7.99609C31.4551 7.81055 31.5576 7.52897 31.5576 7.15137C31.5576 6.77051 31.4567 6.49056 31.2549 6.31152C31.0563 6.12923 30.7471 6.03809 30.3271 6.03809H29.4678V8.26953H30.3271ZM36.2598 6.63867C37.1224 6.63867 37.7832 6.87467 38.2422 7.34668C38.7012 7.81543 38.9307 8.48926 38.9307 9.36816C38.9307 10.2471 38.7012 10.9242 38.2422 11.3994C37.7832 11.8747 37.1224 12.1123 36.2598 12.1123C35.4069 12.1123 34.7493 11.8763 34.2871 11.4043C33.8249 10.929 33.5938 10.2503 33.5938 9.36816C33.5938 8.48926 33.8232 7.81543 34.2822 7.34668C34.7412 6.87467 35.4004 6.63867 36.2598 6.63867ZM36.2598 7.76172C35.4883 7.75846 35.1025 8.29395 35.1025 9.36816C35.1025 10.4424 35.4883 10.9795 36.2598 10.9795C37.0345 10.9795 37.4219 10.4424 37.4219 9.36816C37.4219 8.29395 37.0345 7.75846 36.2598 7.76172ZM43.6768 9.79785C43.6247 9.57975 43.584 9.39421 43.5547 9.24121C43.5254 9.08822 43.4993 8.96126 43.4766 8.86035L43.3887 8.38184C43.3691 8.44694 43.3219 8.66016 43.2471 9.02148C43.2275 9.1224 43.1755 9.38118 43.0908 9.79785L42.5195 12H40.7275L39.3164 6.76074H40.7666L41.3184 9.08984C41.377 9.33073 41.4665 9.72461 41.5869 10.2715C41.5999 10.3464 41.6162 10.4294 41.6357 10.5205C41.6585 10.6084 41.6797 10.6979 41.6992 10.7891C41.9043 9.98828 42.0508 9.42188 42.1387 9.08984L42.7881 6.76074H43.9795L44.6191 9.08984C44.6777 9.29492 44.7298 9.48698 44.7754 9.66602C44.8242 9.8418 44.8649 9.99642 44.8975 10.1299C45.0309 10.6312 45.0879 10.8509 45.0684 10.7891C45.1497 10.457 45.2767 9.88737 45.4492 9.08008L46.001 6.76074H47.4512L46.0303 12H44.2383L43.6768 9.79785ZM49.3018 9.66113C49.3799 10.5531 49.8389 10.999 50.6787 10.999C50.9391 10.999 51.2012 10.9697 51.4648 10.9111C51.7285 10.8493 52.0199 10.7516 52.3389 10.6182L52.7002 11.5508C51.9059 11.9186 51.1719 12.1009 50.498 12.0977C49.6712 12.0977 49.0218 11.8568 48.5498 11.375C48.0778 10.8932 47.8418 10.2243 47.8418 9.36816C47.8418 8.5153 48.0729 7.85124 48.5352 7.37598C48.9974 6.89746 49.6452 6.6582 50.4785 6.6582C52.0443 6.6582 52.8271 7.54525 52.8271 9.31934V9.66113H49.3018ZM51.4502 8.79199C51.4079 8.06283 51.0872 7.69824 50.4883 7.69824C50.1562 7.69824 49.8942 7.78939 49.7021 7.97168C49.5133 8.15072 49.3896 8.42415 49.3311 8.79199H51.4502ZM55.2148 7.48828C55.5436 6.94792 56.0042 6.67773 56.5967 6.67773C56.7236 6.67773 56.8311 6.68587 56.9189 6.70215C57.0101 6.71517 57.1257 6.74121 57.2656 6.78027L57.0947 8.08887C56.8148 7.98796 56.5674 7.93913 56.3525 7.94238C56.1182 7.94238 55.9196 7.9847 55.7568 8.06934C55.5941 8.15072 55.4574 8.28092 55.3467 8.45996V12H53.8428V6.76074H55.0342L55.2148 7.48828ZM58.999 9.66113C59.0771 10.5531 59.5361 10.999 60.376 10.999C60.6364 10.999 60.8984 10.9697 61.1621 10.9111C61.4258 10.8493 61.7171 10.7516 62.0361 10.6182L62.3975 11.5508C61.6032 11.9186 60.8691 12.1009 60.1953 12.0977C59.3685 12.0977 58.7191 11.8568 58.2471 11.375C57.7751 10.8932 57.5391 10.2243 57.5391 9.36816C57.5391 8.5153 57.7702 7.85124 58.2324 7.37598C58.6947 6.89746 59.3424 6.6582 60.1758 6.6582C61.7415 6.6582 62.5244 7.54525 62.5244 9.31934V9.66113H58.999ZM61.1475 8.79199C61.1051 8.06283 60.7845 7.69824 60.1855 7.69824C59.8535 7.69824 59.5915 7.78939 59.3994 7.97168C59.2106 8.15072 59.0869 8.42415 59.0283 8.79199H61.1475ZM66.9824 11.3701C66.7611 11.611 66.5267 11.7884 66.2793 11.9023C66.0352 12.013 65.7568 12.0684 65.4443 12.0684C64.7249 12.0684 64.1634 11.8421 63.7598 11.3896C63.3561 10.9372 63.1543 10.3008 63.1543 9.48047C63.1543 8.60807 63.4049 7.92285 63.9062 7.4248C64.4108 6.92676 65.1025 6.67773 65.9814 6.67773C66.2354 6.67773 66.5283 6.71191 66.8604 6.78027V4.48047H68.3643V11.9902H67.2119L66.9824 11.3701ZM65.752 11.0088C66.0124 11.0088 66.2402 10.9355 66.4355 10.7891C66.6341 10.6426 66.7757 10.4391 66.8604 10.1787V7.81055C66.6683 7.76497 66.5202 7.73405 66.416 7.71777C66.3118 7.69824 66.1947 7.68848 66.0645 7.68848C65.612 7.68848 65.2653 7.83659 65.0244 8.13281C64.7835 8.42578 64.6631 8.85872 64.6631 9.43164C64.6631 10.4863 65.026 11.012 65.752 11.0088ZM73.4717 7.25879C73.859 6.87142 74.3294 6.67773 74.8828 6.67773C75.6087 6.67773 76.1735 6.9056 76.5771 7.36133C76.9808 7.8138 77.1826 8.4502 77.1826 9.27051C77.1826 10.1364 76.9287 10.82 76.4209 11.3213C75.9131 11.8193 75.2165 12.0684 74.3311 12.0684C73.8786 12.0684 73.4375 12.0391 73.0078 11.9805C72.5814 11.9186 72.2363 11.8389 71.9727 11.7412V4.48047H73.4717V7.25879ZM74.5703 7.74219C74.2969 7.74219 74.0609 7.81868 73.8623 7.97168C73.667 8.12467 73.5368 8.32812 73.4717 8.58203V10.9209C73.693 11.0088 73.9567 11.0511 74.2627 11.0479C74.7152 11.0479 75.0602 10.9014 75.2979 10.6084C75.5387 10.3154 75.6592 9.88574 75.6592 9.31934C75.6592 8.7985 75.5664 8.40625 75.3809 8.14258C75.1953 7.87565 74.9251 7.74219 74.5703 7.74219ZM79.4434 11.9707L77.4609 6.76074H78.8916L79.4824 8.37207C79.6289 8.77246 79.8145 9.40234 80.0391 10.2617L80.1709 10.7598L80.3223 10.1787C80.5143 9.38444 80.6836 8.77409 80.8301 8.34766L81.4014 6.76074H82.8418L79.9707 14.29H78.6035L79.4434 11.9707Z" fill="white"/>
<path d="M16.4959 16C7.38564 16 0 23.3874 0 32.5001C0 41.6132 7.38564 49 16.4959 49C25.6071 49 32.9919 41.6132 32.9919 32.5001C32.9919 23.388 25.6073 16 16.4959 16ZM24.0607 39.7979C23.9904 39.9133 23.8979 40.0136 23.7887 40.0932C23.6795 40.1728 23.5556 40.2301 23.4243 40.2617C23.2929 40.2934 23.1566 40.2988 23.0231 40.2777C22.8896 40.2566 22.7616 40.2094 22.6464 40.1387C18.7734 37.7724 13.8977 37.2364 8.15564 38.5487C7.88976 38.6092 7.61075 38.5616 7.37993 38.4164C7.14911 38.2712 6.98538 38.0402 6.9247 37.7743C6.89448 37.6427 6.89052 37.5063 6.91305 37.3731C6.93558 37.24 6.98415 37.1125 7.05598 36.9981C7.12782 36.8837 7.22151 36.7846 7.33168 36.7065C7.44186 36.6284 7.56636 36.5728 7.69805 36.5429C13.9818 35.1069 19.3718 35.7252 23.72 38.3832C24.2045 38.6807 24.3582 39.3132 24.0607 39.7979ZM26.0798 35.3051C25.7075 35.9104 24.9156 36.1015 24.3109 35.7291C19.8769 33.0029 13.1178 32.2134 7.87317 33.8059C7.19299 34.0114 6.4746 33.6279 6.26816 32.9487C6.16966 32.6222 6.20463 32.2699 6.36541 31.9692C6.52618 31.6684 6.79964 31.4437 7.12582 31.3443C13.1166 29.5261 20.5643 30.4068 25.6563 33.5367C26.261 33.9091 26.4521 34.701 26.0798 35.3051ZM26.2532 30.6267C20.9366 27.468 12.165 27.1776 7.08898 28.7186C6.27387 28.9659 5.41188 28.5056 5.16487 27.6903C5.04609 27.2986 5.0877 26.8757 5.28056 26.5147C5.47342 26.1536 5.80174 25.884 6.19331 25.7651C12.0202 23.9957 21.7068 24.3375 27.8278 27.9722C28.0023 28.0755 28.1547 28.2121 28.2762 28.3743C28.3978 28.5365 28.4862 28.7212 28.5363 28.9176C28.5865 29.1141 28.5974 29.3185 28.5684 29.5191C28.5394 29.7198 28.4712 29.9128 28.3676 30.087C27.9342 30.8204 26.984 31.0621 26.2532 30.6267ZM44.8798 31.232C42.0314 30.5526 41.5252 30.0758 41.5252 29.0739C41.5252 28.1273 42.4155 27.4903 43.7412 27.4903C45.0255 27.4903 46.298 27.974 47.6336 28.9698C47.673 29 47.7242 29.012 47.7734 29.0041C47.7982 29.0006 47.822 28.992 47.8433 28.9789C47.8647 28.9658 47.8831 28.9485 47.8975 28.9281L49.2882 26.9672C49.3157 26.9283 49.3273 26.8804 49.3207 26.8333C49.3141 26.7861 49.2898 26.7432 49.2528 26.7134C47.6631 25.438 45.8745 24.8179 43.7826 24.8179C40.7077 24.8179 38.5586 26.6639 38.5586 29.3052C38.5586 32.1376 40.4122 33.1405 43.6151 33.9146C46.3394 34.5426 46.8003 35.0686 46.8003 36.0089C46.8003 37.0512 45.8706 37.6995 44.3735 37.6995C42.711 37.6995 41.3538 37.1379 39.837 35.8257C39.7992 35.7937 39.7505 35.7774 39.7011 35.7803C39.6499 35.7843 39.6046 35.8079 39.5731 35.8454L38.013 37.7014C37.948 37.7802 37.9558 37.8945 38.0307 37.9615C39.7957 39.5378 41.9664 40.3693 44.3105 40.3693C47.6237 40.3693 49.7649 38.5585 49.7649 35.7547C49.7708 33.3889 48.3545 32.0786 44.8857 31.2345L44.8798 31.232ZM57.262 28.4223C55.826 28.4223 54.6481 28.9881 53.675 30.1477V28.8425C53.6752 28.7932 53.6558 28.7458 53.6211 28.7107C53.5864 28.6757 53.5392 28.6558 53.4898 28.6556H50.9389C50.8365 28.6556 50.7538 28.7395 50.7538 28.8425V43.3445C50.7538 43.447 50.8365 43.5317 50.9389 43.5317H53.4898C53.5923 43.5317 53.675 43.447 53.675 43.3445V38.7674C54.6481 39.857 55.826 40.391 57.262 40.391C59.9311 40.391 62.6337 38.3359 62.6337 34.4072C62.6377 30.4777 59.9351 28.4221 57.264 28.4221L57.262 28.4223ZM59.6672 34.4072C59.6672 36.4069 58.4361 37.8039 56.6711 37.8039C54.9278 37.8039 53.612 36.3439 53.612 34.4072C53.612 32.4703 54.9278 31.0107 56.6711 31.0107C58.4065 31.0105 59.6672 32.4388 59.6672 34.4072ZM69.5577 28.4223C66.1203 28.4223 63.4276 31.0696 63.4276 34.45C63.4276 37.794 66.1026 40.4126 69.5163 40.4126C72.9654 40.4126 75.6661 37.7743 75.6661 34.4072C75.6661 31.0515 72.9832 28.4223 69.5577 28.4223ZM69.5577 37.8236C67.7297 37.8236 66.3508 36.3537 66.3508 34.4062C66.3508 32.4499 67.6824 31.0302 69.5163 31.0302C71.3561 31.0302 72.7429 32.4995 72.7429 34.449C72.7429 36.4049 71.4034 37.8236 69.5577 37.8236ZM83.0056 28.6556H80.1986V25.7855C80.1987 25.7611 80.194 25.7369 80.1848 25.7143C80.1755 25.6917 80.1619 25.6711 80.1447 25.6538C80.1275 25.6364 80.1071 25.6227 80.0846 25.6132C80.062 25.6038 80.0379 25.5989 80.0135 25.5988H77.4625C77.3601 25.5988 77.2754 25.6827 77.2754 25.7855V28.6556H76.0502C75.9477 28.6556 75.865 28.7395 75.865 28.8425V31.0349C75.865 31.1378 75.9477 31.2219 76.0502 31.2219H77.2754V36.8956C77.2754 39.1871 78.4159 40.3496 80.6674 40.3496C81.5814 40.3496 82.3398 40.1604 83.0548 39.7545C83.1139 39.723 83.1494 39.66 83.1494 39.593V37.5044C83.1494 37.4413 83.1159 37.3803 83.0608 37.3468C83.0339 37.3296 83.003 37.3198 82.9712 37.3184C82.9394 37.3171 82.9078 37.3241 82.8795 37.3389C82.3891 37.5852 81.9143 37.6995 81.3825 37.6995C80.565 37.6995 80.1986 37.3271 80.1986 36.4956V31.2229H83.0056C83.108 31.2229 83.1908 31.139 83.1908 31.0359V28.8437C83.1916 28.8193 83.1875 28.7949 83.1786 28.7721C83.1697 28.7493 83.1563 28.7285 83.1392 28.711C83.1221 28.6935 83.1016 28.6797 83.0789 28.6704C83.0563 28.661 83.032 28.6564 83.0076 28.6567L83.0056 28.6556ZM92.7838 28.6668V28.3143C92.7838 27.2773 93.1817 26.8149 94.072 26.8149C94.6039 26.8149 95.0314 26.9205 95.51 27.0801C95.5691 27.0986 95.6302 27.0893 95.6775 27.0541C95.7014 27.0367 95.7209 27.0139 95.7343 26.9875C95.7477 26.9611 95.7545 26.9319 95.7543 26.9023V24.7527C95.7547 24.7125 95.7421 24.6733 95.7183 24.641C95.6945 24.6087 95.6608 24.585 95.6223 24.5736C95.118 24.4232 94.4719 24.269 93.5028 24.269C91.1488 24.269 89.9019 25.5958 89.9019 28.1046V28.6445H88.6767C88.5743 28.6445 88.4896 28.7285 88.4896 28.8313V31.0349C88.4896 31.1378 88.5743 31.2219 88.6767 31.2219H89.9019V39.9713C89.9019 40.0757 89.9866 40.1585 90.0891 40.1585H92.638C92.7424 40.1585 92.8251 40.0757 92.8251 39.9713V31.2225H95.2067L98.8548 39.9713C98.4411 40.8895 98.0333 41.0727 97.4779 41.0727C97.0287 41.0727 96.554 40.9387 96.0714 40.6727C96.0257 40.6496 95.9729 40.6447 95.9237 40.6589C95.8744 40.6767 95.8331 40.7121 95.8134 40.7594L94.9486 42.6569C94.9072 42.7475 94.9427 42.8519 95.0294 42.8992C95.9316 43.3879 96.7451 43.5967 97.7517 43.5967C99.6348 43.5967 100.677 42.7179 101.593 40.3575L106.017 28.9221C106.029 28.8939 106.033 28.8632 106.029 28.8328C106.026 28.8025 106.015 28.7735 105.997 28.7486C105.981 28.7236 105.958 28.7031 105.932 28.6889C105.905 28.6747 105.876 28.6673 105.846 28.6674H103.19C103.11 28.6674 103.039 28.718 103.013 28.7927L100.293 36.5626L97.3144 28.7876C97.3011 28.7523 97.2773 28.722 97.2464 28.7005C97.2154 28.679 97.1787 28.6675 97.141 28.6674L92.7838 28.6668ZM87.1147 28.6556H84.5637C84.4613 28.6556 84.3766 28.7395 84.3766 28.8425V39.9713C84.3766 40.0757 84.4613 40.1585 84.5637 40.1585H87.1147C87.2171 40.1585 87.3018 40.0757 87.3018 39.9713V28.8433C87.3018 28.8187 87.297 28.7944 87.2876 28.7717C87.2783 28.7489 87.2645 28.7283 87.2471 28.7109C87.2297 28.6935 87.209 28.6798 87.1863 28.6704C87.1636 28.661 87.1392 28.6555 87.1147 28.6556ZM85.854 23.588C84.8434 23.588 84.024 24.4061 84.024 25.4167C84.024 25.6571 84.0713 25.8951 84.1633 26.1171C84.2553 26.3392 84.3901 26.541 84.56 26.7109C84.7299 26.8809 84.9317 27.0157 85.1537 27.1077C85.3757 27.1997 85.6137 27.247 85.854 27.247C86.8645 27.247 87.682 26.4279 87.682 25.4167C87.682 24.4063 86.8625 23.588 85.854 23.588ZM108.196 32.2339C107.187 32.2339 106.401 31.4231 106.401 30.4385C106.401 29.4539 107.197 28.6339 108.206 28.6339C109.214 28.6339 110 29.4445 110 30.4283C110 31.4129 109.204 32.2339 108.196 32.2339ZM108.206 28.8124C107.286 28.8124 106.59 29.5434 106.59 30.4385C106.59 31.3333 107.282 32.0544 108.196 32.0544C109.116 32.0544 109.811 31.324 109.811 30.4283C109.811 29.5335 109.12 28.8124 108.206 28.8124ZM108.603 30.6129L109.112 31.3238H108.682L108.225 30.6716H107.833V31.3238H107.475V29.4394H108.314C108.753 29.4394 109.041 29.6634 109.041 30.0405C109.043 30.3495 108.863 30.5382 108.605 30.6129H108.603ZM108.3 29.7627H107.833V30.3587H108.3C108.532 30.3587 108.672 30.2446 108.672 30.0604C108.672 29.8665 108.532 29.7627 108.3 29.7627Z" fill="white"/>
</svg>
