<svg width="40" height="40" viewBox="0 0 40 40" fill="none" xmlns="http://www.w3.org/2000/svg">
<path fill-rule="evenodd" clip-rule="evenodd" d="M16.2064 8.70294C16.6232 8.25286 17.1884 8 17.7778 8H22.2222C22.8116 8 23.3768 8.25286 23.7936 8.70294C24.2103 9.15303 24.4444 9.76348 24.4444 10.4V12.8H27.7648C27.7726 12.7999 27.7804 12.7999 27.7883 12.8H28.8889C29.5025 12.8 30 13.3373 30 14C30 14.6627 29.5025 15.2 28.8889 15.2H28.8001L27.7774 28.4549C27.7642 29.3898 27.4146 30.2834 26.8015 30.9456C26.1763 31.6207 25.3285 32 24.4444 32H15.5556C14.6715 32 13.8237 31.6207 13.1985 30.9456C12.5854 30.2834 12.2358 29.3898 12.2226 28.4549L11.1999 15.2H11.1111C10.4975 15.2 10 14.6627 10 14C10 13.3373 10.4975 12.8 11.1111 12.8H12.2117C12.2196 12.7999 12.2274 12.7999 12.2352 12.8H15.5556V10.4C15.5556 9.76348 15.7897 9.15303 16.2064 8.70294ZM13.4298 15.2L14.4406 28.3003C14.4432 28.3335 14.4444 28.3667 14.4444 28.4C14.4444 28.7183 14.5615 29.0235 14.7699 29.2485C14.9783 29.4736 15.2609 29.6 15.5556 29.6H24.4444C24.7391 29.6 25.0217 29.4736 25.2301 29.2485C25.4385 29.0235 25.5556 28.7183 25.5556 28.4C25.5556 28.3667 25.5568 28.3335 25.5594 28.3003L26.5702 15.2H13.4298ZM22.2222 12.8H17.7778V10.4H22.2222V12.8ZM16.9921 20.8485C16.5582 20.3799 16.5582 19.6201 16.9921 19.1515C17.426 18.6828 18.1295 18.6828 18.5635 19.1515L20 20.7029L21.4365 19.1515C21.8705 18.6828 22.574 18.6828 23.0079 19.1515C23.4418 19.6201 23.4418 20.3799 23.0079 20.8485L21.5713 22.4L23.0079 23.9515C23.4418 24.4201 23.4418 25.1799 23.0079 25.6485C22.574 26.1172 21.8705 26.1172 21.4365 25.6485L20 24.0971L18.5635 25.6485C18.1295 26.1172 17.426 26.1172 16.9921 25.6485C16.5582 25.1799 16.5582 24.4201 16.9921 23.9515L18.4287 22.4L16.9921 20.8485Z" fill="#DD643E"/>
</svg>
